# xmcd
#
# Track frame offsets:
#	182
#	30862
#	61797
#	87732
#	101102
#	131257
#	147422
#
# Disc length: 2197 seconds
#
# Revision: 1
# Processed by: cddbd v1.5.1PL0 Copyright (c) Steve Scherf et al.
# Submitted via: audiograbber 1.83.01
#
DISCID=58089307
DTITLE=Big Mama Thornton - Jail
DYEAR=1975
DGENRE=Blues
TTITLE0=Little RedRooster
TTITLE1=Ball'N'Chain
TTITLE2=Jail
TTITLE3=Hound Dog
TTITLE4=Rock Me Baby
TTITLE5=Sheriff O.E and Me
TTITLE6=Oh Happy Day
EXTD=1975
EXTT0=
EXTT1=
EXTT2=
EXTT3=
EXTT4=
EXTT5=
EXTT6=
PLAYORDER=
